# xmcd CD database file
#
# Track frame offsets:
#	150
#	76484
#	217331
#
# Disc length: 4233 seconds
#
# Revision: 0
# Processed by: cddbd v1.5.2PL0 Copyright (c) Steve Scherf et al.
# Submitted via: CDex 1.51
#
DISCID=27108703
DTITLE=Keiji Haino - Light Darkness, Suddenly Melted Together, This Vibration
DYEAR=2003
DGENRE=Blues
TTITLE0=untitled
TTITLE1=untitled
TTITLE2=untitled
EXTD=YEAR: 2003
EXTT0=
EXTT1=
EXTT2=
PLAYORDER=
